<?xml version="1.0" encoding="UTF-8"?>
<!DOCTYPE svg PUBLIC "-//W3C//DTD SVG 1.1//EN" "http://www.w3.org/Graphics/SVG/1.1/DTD/svg11.dtd">
<!-- Creator: CorelDRAW 2018 (64-Bit) -->
<svg xmlns="http://www.w3.org/2000/svg" xml:space="preserve" width="841mm" height="594mm" version="1.1" style="shape-rendering:geometricPrecision; text-rendering:geometricPrecision; image-rendering:optimizeQuality; fill-rule:evenodd; clip-rule:evenodd"
viewBox="0 0 84100 59400"
 xmlns:xlink="http://www.w3.org/1999/xlink">
 <defs>
  <style type="text/css">
   <![CDATA[
    .fil1 {fill:#FBBE0E}
    .fil2 {fill:#FBC00F}
    .fil83 {fill:#F6AA5B}
    .fil82 {fill:#F5A755}
    .fil3 {fill:#FBC20F}
    .fil81 {fill:#F3A654}
    .fil4 {fill:#FAC40E}
    .fil84 {fill:#F5B068}
    .fil80 {fill:#F1A453}
    .fil5 {fill:#FAC70F}
    .fil79 {fill:#EFA252}
    .fil6 {fill:#FAC90F}
    .fil78 {fill:#EDA151}
    .fil85 {fill:#F4B675}
    .fil77 {fill:#EB9F50}
    .fil7 {fill:#F9CA0F}
    .fil76 {fill:#E99E50}
    .fil8 {fill:#F9CD10}
    .fil86 {fill:#F3BC82}
    .fil9 {fill:#F8CF0F}
    .fil75 {fill:#E69C4F}
    .fil10 {fill:#F8D210}
    .fil74 {fill:#E49A4E}
    .fil11 {fill:#F8D411}
    .fil87 {fill:#F2C28F}
    .fil73 {fill:#E2994E}
    .fil0 {fill:#FAEA15}
    .fil12 {fill:#F7D611}
    .fil72 {fill:#E1974D}
    .fil30 {fill:#FAEA15}
    .fil88 {fill:#F1C89C}
    .fil29 {fill:#FAE913}
    .fil13 {fill:#F7D810}
    .fil71 {fill:#DE954C}
    .fil28 {fill:#F9E911}
    .fil14 {fill:#F7DA10}
    .fil70 {fill:#DC944B}
    .fil27 {fill:#F9E80F}
    .fil15 {fill:#F6DC11}
    .fil89 {fill:#EFCEAA}
    .fil69 {fill:#DA924A}
    .fil26 {fill:#F8E810}
    .fil16 {fill:#F6DE11}
    .fil68 {fill:#D89149}
    .fil25 {fill:#F8E80E}
    .fil17 {fill:#F6E010}
    .fil90 {fill:#EED3B7}
    .fil24 {fill:#F7E70F}
    .fil18 {fill:#F6E20E}
    .fil67 {fill:#D68F49}
    .fil23 {fill:#F6E70E}
    .fil19 {fill:#F5E40C}
    .fil66 {fill:#D48D48}
    .fil22 {fill:#F5E70F}
    .fil20 {fill:#F5E50D}
    .fil91 {fill:#ECD8C3}
    .fil65 {fill:#D28C47}
    .fil21 {fill:#F4E60E}
    .fil64 {fill:#D08B47}
    .fil92 {fill:#EBDED0}
    .fil93 {fill:#E9E2DC}
    .fil62 {fill:#E7E7E7}
    .fil31 {fill:#E7DAB4}
    .fil32 {fill:#E6DAB5}
    .fil61 {fill:#E5E5E5}
    .fil33 {fill:#E4D9B6}
    .fil60 {fill:#E3E3E3}
    .fil34 {fill:#E3D8B9}
    .fil35 {fill:#E2D7B9}
    .fil59 {fill:#E0E0E0}
    .fil36 {fill:#E0D7BA}
    .fil37 {fill:#DFD6BC}
    .fil58 {fill:#DEDEDE}
    .fil38 {fill:#DED6BE}
    .fil39 {fill:#DDD5BF}
    .fil57 {fill:#DBDBDB}
    .fil40 {fill:#DCD5C1}
    .fil56 {fill:#DADADA}
    .fil41 {fill:#D9D3C2}
    .fil42 {fill:#D9D3C3}
    .fil55 {fill:#D7D7D7}
    .fil43 {fill:#D7D2C5}
    .fil44 {fill:#D6D2C6}
    .fil54 {fill:#D5D5D5}
    .fil45 {fill:#D4D0C7}
    .fil53 {fill:#D3D2D2}
    .fil46 {fill:#D3D0C8}
    .fil47 {fill:#D2D0CA}
    .fil52 {fill:#D0D0D0}
    .fil48 {fill:#D0CECA}
    .fil49 {fill:#CFCECC}
    .fil51 {fill:#CECECF}
    .fil50 {fill:#CECECD}
    .fil63 {fill:#CE8946}
   ]]>
  </style>
    <clipPath id="id0">
     <path d="M19713.53 4412.78l1717.73 5321.41 5591.78 -10.74 -4530.16 3278.07 1738.17 5314.77 -4517.52 -3295.46 -4517.52 3295.46 1738.17 -5314.77 -4530.16 -3278.07 5591.78 10.74 1717.73 -5321.41z"/>
    </clipPath>
    <clipPath id="id1">
     <path d="M45927.14 4755.89l1717.73 5321.41 5591.78 -10.74 -4530.16 3278.07 1738.17 5314.77 -4517.52 -3295.46 -4517.52 3295.46 1738.17 -5314.77 -4530.16 -3278.07 5591.78 10.74 1717.73 -5321.41z"/>
    </clipPath>
    <clipPath id="id2">
     <path d="M69258.62 4550.02l1717.73 5321.41 5591.78 -10.74 -4530.16 3278.07 1738.17 5314.77 -4517.52 -3295.46 -4517.52 3295.46 1738.17 -5314.77 -4530.16 -3278.07 5591.78 10.74 1717.73 -5321.41z"/>
    </clipPath>
 </defs>
 <g id="Layer_x0020_1">
  <metadata id="CorelCorpID_0Corel-Layer"/>
  <g>
   <g style="clip-path:url(#id0)">
    <polygon class="fil0" points="12404.02,4412.78 27023.04,4412.78 27023.04,18316.29 12404.02,18316.29 "/>
    <polygon id="1" class="fil1" points="19370.9,11038.67 20056.16,11038.67 20056.16,11690.4 19370.9,11690.4 "/>
    <path id="2" class="fil2" d="M19485.11 11147.29l0 434.49 456.84 0 0 -434.49 -456.84 0zm-342.64 -325.86l1142.12 0 0 1086.21 -1142.12 0 0 -1086.21z"/>
    <path id="3" class="fil3" d="M19256.69 10930.05l0 868.97 913.68 0 0 -868.97 -913.68 0zm-342.64 -325.86l1598.96 0 0 1520.69 -1598.96 0 0 -1520.69z"/>
    <path id="4" class="fil4" d="M19028.26 10712.81l0 1303.45 1370.54 0 0 -1303.45 -1370.54 0zm-342.63 -325.87l2055.8 0 0 1955.19 -2055.8 0 0 -1955.19z"/>
    <path id="5" class="fil5" d="M18799.84 10495.57l0 1737.93 1827.38 0 0 -1737.93 -1827.38 0zm-342.63 -325.87l2512.64 0 0 2389.67 -2512.64 0 0 -2389.67z"/>
    <path id="6" class="fil6" d="M18571.42 10278.32l0 2172.43 2284.22 0 0 -2172.43 -2284.22 0zm-342.63 -325.86l2969.48 0 0 2824.15 -2969.48 0 0 -2824.15z"/>
    <path id="7" class="fil7" d="M18343 10061.08l0 2606.91 2741.06 0 0 -2606.91 -2741.06 0zm-342.64 -325.86l3426.34 0 0 3258.63 -3426.34 0 0 -3258.63z"/>
    <path id="8" class="fil8" d="M18114.57 9843.84l0 3041.39 3197.92 0 0 -3041.39 -3197.92 0zm-342.63 -325.86l3883.18 0 0 3693.11 -3883.18 0 0 -3693.11z"/>
    <path id="9" class="fil9" d="M17886.15 9626.6l0 3475.87 3654.76 0 0 -3475.87 -3654.76 0zm-342.63 -325.87l4340.02 0 0 4127.61 -4340.02 0 0 -4127.61z"/>
    <path id="10" class="fil10" d="M17657.73 9409.35l0 3910.37 4111.6 0 0 -3910.37 -4111.6 0zm-342.63 -325.86l4796.86 0 0 4562.09 -4796.86 0 0 -4562.09z"/>
    <path id="11" class="fil11" d="M17429.31 9192.11l0 4344.85 4568.44 0 0 -4344.85 -4568.44 0zm-342.64 -325.86l5253.72 0 0 4996.57 -5253.72 0 0 -4996.57z"/>
    <path id="12" class="fil12" d="M17200.89 8974.87l0 4779.33 5025.28 0 0 -4779.33 -5025.28 0zm-342.64 -325.86l5710.56 0 0 5431.05 -5710.56 0 0 -5431.05z"/>
    <path id="13" class="fil13" d="M16972.46 8757.63l0 5213.81 5482.14 0 0 -5213.81 -5482.14 0zm-342.63 -325.87l6167.4 0 0 5865.55 -6167.4 0 0 -5865.55z"/>
    <path id="14" class="fil14" d="M16744.04 8540.38l0 5648.31 5938.98 0 0 -5648.31 -5938.98 0zm-342.63 -325.86l6624.24 0 0 6300.03 -6624.24 0 0 -6300.03z"/>
    <path id="15" class="fil15" d="M16515.62 8323.14l0 6082.79 6395.82 0 0 -6082.79 -6395.82 0zm-342.63 -325.86l7081.08 0 0 6734.51 -7081.08 0 0 -6734.51z"/>
    <path id="16" class="fil16" d="M16287.2 8105.9l0 6517.27 6852.66 0 0 -6517.27 -6852.66 0zm-342.64 -325.86l7537.94 0 0 7168.99 -7537.94 0 0 -7168.99z"/>
    <path id="17" class="fil17" d="M16058.78 7888.66l0 6951.75 7309.51 0 0 -6951.75 -7309.51 0zm-342.64 -325.87l7994.78 0 0 7603.49 -7994.78 0 0 -7603.49z"/>
    <path id="18" class="fil18" d="M15830.35 7671.42l0 7386.23 7766.36 0 0 -7386.23 -7766.36 0zm-342.63 -325.87l8451.62 0 0 8037.97 -8451.62 0 0 -8037.97z"/>
    <path id="19" class="fil19" d="M15601.93 7454.17l0 7820.73 8223.2 0 0 -7820.73 -8223.2 0zm-342.63 -325.86l8908.46 0 0 8472.45 -8908.46 0 0 -8472.45z"/>
    <path id="20" class="fil20" d="M15373.51 7236.93l0 8255.21 8680.04 0 0 -8255.21 -8680.04 0zm-342.63 -325.86l9365.3 0 0 8906.93 -9365.3 0 0 -8906.93z"/>
    <path id="21" class="fil21" d="M15145.09 7019.69l0 8689.69 9136.88 0 0 -8689.69 -9136.88 0zm-342.64 -325.87l9822.16 0 0 9341.43 -9822.16 0 0 -9341.43z"/>
    <path id="22" class="fil22" d="M14916.66 6802.45l0 9124.17 9593.74 0 0 -9124.17 -9593.74 0zm-342.63 -325.87l10279 0 0 9775.91 -10279 0 0 -9775.91z"/>
    <path id="23" class="fil23" d="M14688.24 6585.2l0 9558.67 10050.58 0 0 -9558.67 -10050.58 0zm-342.63 -325.86l10735.84 0 0 10210.39 -10735.84 0 0 -10210.39z"/>
    <path id="24" class="fil24" d="M14459.82 6367.96l0 9993.15 10507.42 0 0 -9993.15 -10507.42 0zm-342.63 -325.86l11192.68 0 0 10644.87 -11192.68 0 0 -10644.87z"/>
    <path id="25" class="fil25" d="M14231.4 6150.72l0 10427.63 10964.26 0 0 -10427.63 -10964.26 0zm-342.64 -325.86l11649.54 0 0 11079.35 -11649.54 0 0 -11079.35z"/>
    <path id="26" class="fil26" d="M14002.98 5933.48l0 10862.11 11421.1 0 0 -10862.11 -11421.1 0zm-342.64 -325.87l12106.38 0 0 11513.85 -12106.38 0 0 -11513.85z"/>
    <path id="27" class="fil27" d="M13774.55 5716.23l0 11296.61 11877.96 0 0 -11296.61 -11877.96 0zm-342.63 -325.86l12563.22 0 0 11948.33 -12563.22 0 0 -11948.33z"/>
    <path id="28" class="fil28" d="M13546.13 5498.99l0 11731.09 12334.8 0 0 -11731.09 -12334.8 0zm-342.63 -325.86l13020.06 0 0 12382.81 -13020.06 0 0 -12382.81z"/>
    <path id="29" class="fil28" d="M13317.71 5281.75l0 12165.57 12791.64 0 0 -12165.57 -12791.64 0zm-342.63 -325.86l13476.9 0 0 12817.29 -13476.9 0 0 -12817.29z"/>
    <path id="30" class="fil29" d="M13089.29 5064.51l0 12600.05 13248.48 0 0 -12600.05 -13248.48 0zm-342.64 -325.87l13933.76 0 0 13251.79 -13933.76 0 0 -13251.79z"/>
    <path id="31" class="fil30" d="M12860.86 4847.26l0 13034.55 13705.34 0 0 -13034.55 -13705.34 0zm-342.63 -325.86l14390.6 0 0 13686.27 -14390.6 0 0 -13686.27z"/>
    <path id="32" class="fil0" d="M12632.44 4630.02l0 13469.03 14162.18 0 0 -13469.03 -14162.18 0zm-228.42 -217.24l14619.02 0 0 13903.51 -14619.02 0 0 -13903.51z"/>
   </g>
  </g>
  <g>
   <g style="clip-path:url(#id1)">
    <polygon class="fil31" points="45584.51,11381.78 46269.77,11381.78 46269.77,12033.51 45584.51,12033.51 "/>
    <path id="1" class="fil32" d="M45698.72 11490.4l0 434.49 456.84 0 0 -434.49 -456.84 0zm-342.64 -325.86l1142.12 0 0 1086.21 -1142.12 0 0 -1086.21z"/>
    <path id="2" class="fil33" d="M45470.3 11273.16l0 868.97 913.68 0 0 -868.97 -913.68 0zm-342.64 -325.86l1598.96 0 0 1520.69 -1598.96 0 0 -1520.69z"/>
    <path id="3" class="fil34" d="M45241.87 11055.92l0 1303.45 1370.54 0 0 -1303.45 -1370.54 0zm-342.63 -325.87l2055.8 0 0 1955.19 -2055.8 0 0 -1955.19z"/>
    <path id="4" class="fil35" d="M45013.45 10838.68l0 1737.93 1827.38 0 0 -1737.93 -1827.38 0zm-342.63 -325.87l2512.64 0 0 2389.67 -2512.64 0 0 -2389.67z"/>
    <path id="5" class="fil36" d="M44785.03 10621.43l0 2172.43 2284.22 0 0 -2172.43 -2284.22 0zm-342.63 -325.86l2969.48 0 0 2824.15 -2969.48 0 0 -2824.15z"/>
    <path id="6" class="fil37" d="M44556.61 10404.19l0 2606.91 2741.06 0 0 -2606.91 -2741.06 0zm-342.64 -325.86l3426.34 0 0 3258.63 -3426.34 0 0 -3258.63z"/>
    <path id="7" class="fil38" d="M44328.18 10186.95l0 3041.39 3197.92 0 0 -3041.39 -3197.92 0zm-342.63 -325.86l3883.18 0 0 3693.11 -3883.18 0 0 -3693.11z"/>
    <path id="8" class="fil39" d="M44099.76 9969.71l0 3475.87 3654.76 0 0 -3475.87 -3654.76 0zm-342.63 -325.87l4340.02 0 0 4127.61 -4340.02 0 0 -4127.61z"/>
    <path id="9" class="fil40" d="M43871.34 9752.46l0 3910.37 4111.6 0 0 -3910.37 -4111.6 0zm-342.63 -325.86l4796.86 0 0 4562.09 -4796.86 0 0 -4562.09z"/>
    <path id="10" class="fil41" d="M43642.92 9535.22l0 4344.85 4568.44 0 0 -4344.85 -4568.44 0zm-342.64 -325.86l5253.72 0 0 4996.57 -5253.72 0 0 -4996.57z"/>
    <path id="11" class="fil42" d="M43414.5 9317.98l0 4779.33 5025.28 0 0 -4779.33 -5025.28 0zm-342.64 -325.86l5710.56 0 0 5431.05 -5710.56 0 0 -5431.05z"/>
    <path id="12" class="fil43" d="M43186.07 9100.74l0 5213.81 5482.14 0 0 -5213.81 -5482.14 0zm-342.63 -325.87l6167.4 0 0 5865.55 -6167.4 0 0 -5865.55z"/>
    <path id="13" class="fil44" d="M42957.65 8883.49l0 5648.31 5938.98 0 0 -5648.31 -5938.98 0zm-342.63 -325.86l6624.24 0 0 6300.03 -6624.24 0 0 -6300.03z"/>
    <path id="14" class="fil45" d="M42729.23 8666.25l0 6082.79 6395.82 0 0 -6082.79 -6395.82 0zm-342.63 -325.86l7081.08 0 0 6734.51 -7081.08 0 0 -6734.51z"/>
    <path id="15" class="fil46" d="M42500.81 8449.01l0 6517.27 6852.66 0 0 -6517.27 -6852.66 0zm-342.64 -325.86l7537.94 0 0 7168.99 -7537.94 0 0 -7168.99z"/>
    <path id="16" class="fil47" d="M42272.39 8231.77l0 6951.75 7309.51 0 0 -6951.75 -7309.51 0zm-342.64 -325.87l7994.78 0 0 7603.49 -7994.78 0 0 -7603.49z"/>
    <path id="17" class="fil48" d="M42043.96 8014.53l0 7386.23 7766.36 0 0 -7386.23 -7766.36 0zm-342.63 -325.87l8451.62 0 0 8037.97 -8451.62 0 0 -8037.97z"/>
    <path id="18" class="fil49" d="M41815.54 7797.28l0 7820.73 8223.2 0 0 -7820.73 -8223.2 0zm-342.63 -325.86l8908.46 0 0 8472.45 -8908.46 0 0 -8472.45z"/>
    <path id="19" class="fil50" d="M41587.12 7580.04l0 8255.21 8680.04 0 0 -8255.21 -8680.04 0zm-342.63 -325.86l9365.3 0 0 8906.93 -9365.3 0 0 -8906.93z"/>
    <path id="20" class="fil51" d="M41358.7 7362.8l0 8689.69 9136.88 0 0 -8689.69 -9136.88 0zm-342.64 -325.87l9822.16 0 0 9341.43 -9822.16 0 0 -9341.43z"/>
    <path id="21" class="fil52" d="M41130.27 7145.56l0 9124.17 9593.74 0 0 -9124.17 -9593.74 0zm-342.63 -325.87l10279 0 0 9775.91 -10279 0 0 -9775.91z"/>
    <path id="22" class="fil53" d="M40901.85 6928.31l0 9558.67 10050.58 0 0 -9558.67 -10050.58 0zm-342.63 -325.86l10735.84 0 0 10210.39 -10735.84 0 0 -10210.39z"/>
    <path id="23" class="fil54" d="M40673.43 6711.07l0 9993.15 10507.42 0 0 -9993.15 -10507.42 0zm-342.63 -325.86l11192.68 0 0 10644.87 -11192.68 0 0 -10644.87z"/>
    <path id="24" class="fil55" d="M40445.01 6493.83l0 10427.63 10964.26 0 0 -10427.63 -10964.26 0zm-342.64 -325.86l11649.54 0 0 11079.35 -11649.54 0 0 -11079.35z"/>
    <path id="25" class="fil56" d="M40216.59 6276.59l0 10862.11 11421.1 0 0 -10862.11 -11421.1 0zm-342.64 -325.87l12106.38 0 0 11513.85 -12106.38 0 0 -11513.85z"/>
    <path id="26" class="fil57" d="M39988.16 6059.34l0 11296.61 11877.96 0 0 -11296.61 -11877.96 0zm-342.63 -325.86l12563.22 0 0 11948.33 -12563.22 0 0 -11948.33z"/>
    <path id="27" class="fil58" d="M39759.74 5842.1l0 11731.09 12334.8 0 0 -11731.09 -12334.8 0zm-342.63 -325.86l13020.06 0 0 12382.81 -13020.06 0 0 -12382.81z"/>
    <path id="28" class="fil59" d="M39531.32 5624.86l0 12165.57 12791.64 0 0 -12165.57 -12791.64 0zm-342.63 -325.86l13476.9 0 0 12817.29 -13476.9 0 0 -12817.29z"/>
    <path id="29" class="fil60" d="M39302.9 5407.62l0 12600.05 13248.48 0 0 -12600.05 -13248.48 0zm-342.64 -325.87l13933.76 0 0 13251.79 -13933.76 0 0 -13251.79z"/>
    <path id="30" class="fil61" d="M39074.47 5190.37l0 13034.55 13705.34 0 0 -13034.55 -13705.34 0zm-342.63 -325.86l14390.6 0 0 13686.27 -14390.6 0 0 -13686.27z"/>
    <path id="31" class="fil62" d="M38846.05 4973.13l0 13469.03 14162.18 0 0 -13469.03 -14162.18 0zm-228.42 -217.24l14619.02 0 0 13903.51 -14619.02 0 0 -13903.51z"/>
   </g>
  </g>
  <g>
   <g style="clip-path:url(#id2)">
    <polygon class="fil62" points="61949.11,4550.02 76568.13,4550.02 76568.13,18453.53 61949.11,18453.53 "/>
    <polygon id="1" class="fil63" points="68915.99,11175.91 69601.25,11175.91 69601.25,11827.64 68915.99,11827.64 "/>
    <path id="2" class="fil64" d="M69030.2 11284.53l0 434.49 456.84 0 0 -434.49 -456.84 0zm-342.64 -325.86l1142.12 0 0 1086.21 -1142.12 0 0 -1086.21z"/>
    <path id="3" class="fil65" d="M68801.78 11067.29l0 868.97 913.68 0 0 -868.97 -913.68 0zm-342.64 -325.86l1598.96 0 0 1520.69 -1598.96 0 0 -1520.69z"/>
    <path id="4" class="fil66" d="M68573.35 10850.05l0 1303.45 1370.54 0 0 -1303.45 -1370.54 0zm-342.63 -325.87l2055.8 0 0 1955.19 -2055.8 0 0 -1955.19z"/>
    <path id="5" class="fil67" d="M68344.93 10632.81l0 1737.93 1827.38 0 0 -1737.93 -1827.38 0zm-342.63 -325.87l2512.64 0 0 2389.67 -2512.64 0 0 -2389.67z"/>
    <path id="6" class="fil68" d="M68116.51 10415.56l0 2172.43 2284.22 0 0 -2172.43 -2284.22 0zm-342.63 -325.86l2969.48 0 0 2824.15 -2969.48 0 0 -2824.15z"/>
    <path id="7" class="fil69" d="M67888.09 10198.32l0 2606.91 2741.06 0 0 -2606.91 -2741.06 0zm-342.64 -325.86l3426.34 0 0 3258.63 -3426.34 0 0 -3258.63z"/>
    <path id="8" class="fil70" d="M67659.66 9981.08l0 3041.39 3197.92 0 0 -3041.39 -3197.92 0zm-342.63 -325.86l3883.18 0 0 3693.11 -3883.18 0 0 -3693.11z"/>
    <path id="9" class="fil71" d="M67431.24 9763.84l0 3475.87 3654.76 0 0 -3475.87 -3654.76 0zm-342.63 -325.87l4340.02 0 0 4127.61 -4340.02 0 0 -4127.61z"/>
    <path id="10" class="fil72" d="M67202.82 9546.59l0 3910.37 4111.6 0 0 -3910.37 -4111.6 0zm-342.63 -325.86l4796.86 0 0 4562.09 -4796.86 0 0 -4562.09z"/>
    <path id="11" class="fil73" d="M66974.4 9329.35l0 4344.85 4568.44 0 0 -4344.85 -4568.44 0zm-342.64 -325.86l5253.72 0 0 4996.57 -5253.72 0 0 -4996.57z"/>
    <path id="12" class="fil74" d="M66745.98 9112.11l0 4779.33 5025.28 0 0 -4779.33 -5025.28 0zm-342.64 -325.86l5710.56 0 0 5431.05 -5710.56 0 0 -5431.05z"/>
    <path id="13" class="fil75" d="M66517.55 8894.87l0 5213.81 5482.14 0 0 -5213.81 -5482.14 0zm-342.63 -325.87l6167.4 0 0 5865.55 -6167.4 0 0 -5865.55z"/>
    <path id="14" class="fil76" d="M66289.13 8677.62l0 5648.31 5938.98 0 0 -5648.31 -5938.98 0zm-342.63 -325.86l6624.24 0 0 6300.03 -6624.24 0 0 -6300.03z"/>
    <path id="15" class="fil77" d="M66060.71 8460.38l0 6082.79 6395.82 0 0 -6082.79 -6395.82 0zm-342.63 -325.86l7081.08 0 0 6734.51 -7081.08 0 0 -6734.51z"/>
    <path id="16" class="fil78" d="M65832.29 8243.14l0 6517.27 6852.66 0 0 -6517.27 -6852.66 0zm-342.64 -325.86l7537.94 0 0 7168.99 -7537.94 0 0 -7168.99z"/>
    <path id="17" class="fil79" d="M65603.86 8025.9l0 6951.75 7309.52 0 0 -6951.75 -7309.52 0zm-342.63 -325.87l7994.78 0 0 7603.49 -7994.78 0 0 -7603.49z"/>
    <path id="18" class="fil80" d="M65375.44 7808.66l0 7386.23 7766.36 0 0 -7386.23 -7766.36 0zm-342.63 -325.87l8451.62 0 0 8037.97 -8451.62 0 0 -8037.97z"/>
    <path id="19" class="fil81" d="M65147.02 7591.41l0 7820.73 8223.2 0 0 -7820.73 -8223.2 0zm-342.63 -325.86l8908.46 0 0 8472.45 -8908.46 0 0 -8472.45z"/>
    <path id="20" class="fil82" d="M64918.6 7374.17l0 8255.21 8680.04 0 0 -8255.21 -8680.04 0zm-342.63 -325.86l9365.3 0 0 8906.93 -9365.3 0 0 -8906.93z"/>
    <path id="21" class="fil83" d="M64690.18 7156.93l0 8689.69 9136.88 0 0 -8689.69 -9136.88 0zm-342.64 -325.87l9822.16 0 0 9341.43 -9822.16 0 0 -9341.43z"/>
    <path id="22" class="fil84" d="M64461.75 6939.69l0 9124.17 9593.74 0 0 -9124.17 -9593.74 0zm-342.63 -325.87l10279 0 0 9775.91 -10279 0 0 -9775.91z"/>
    <path id="23" class="fil85" d="M64233.33 6722.44l0 9558.67 10050.58 0 0 -9558.67 -10050.58 0zm-342.63 -325.86l10735.84 0 0 10210.39 -10735.84 0 0 -10210.39z"/>
    <path id="24" class="fil86" d="M64004.91 6505.2l0 9993.15 10507.42 0 0 -9993.15 -10507.42 0zm-342.63 -325.86l11192.68 0 0 10644.87 -11192.68 0 0 -10644.87z"/>
    <path id="25" class="fil87" d="M63776.49 6287.96l0 10427.63 10964.26 0 0 -10427.63 -10964.26 0zm-342.64 -325.86l11649.54 0 0 11079.35 -11649.54 0 0 -11079.35z"/>
    <path id="26" class="fil88" d="M63548.07 6070.72l0 10862.11 11421.1 0 0 -10862.11 -11421.1 0zm-342.64 -325.87l12106.38 0 0 11513.85 -12106.38 0 0 -11513.85z"/>
    <path id="27" class="fil89" d="M63319.64 5853.47l0 11296.61 11877.96 0 0 -11296.61 -11877.96 0zm-342.63 -325.86l12563.22 0 0 11948.33 -12563.22 0 0 -11948.33z"/>
    <path id="28" class="fil90" d="M63091.22 5636.23l0 11731.09 12334.8 0 0 -11731.09 -12334.8 0zm-342.63 -325.86l13020.06 0 0 12382.81 -13020.06 0 0 -12382.81z"/>
    <path id="29" class="fil91" d="M62862.8 5418.99l0 12165.57 12791.64 0 0 -12165.57 -12791.64 0zm-342.63 -325.86l13476.9 0 0 12817.29 -13476.9 0 0 -12817.29z"/>
    <path id="30" class="fil92" d="M62634.38 5201.75l0 12600.05 13248.48 0 0 -12600.05 -13248.48 0zm-342.64 -325.87l13933.76 0 0 13251.79 -13933.76 0 0 -13251.79z"/>
    <path id="31" class="fil93" d="M62405.95 4984.5l0 13034.55 13705.34 0 0 -13034.55 -13705.34 0zm-342.63 -325.86l14390.6 0 0 13686.27 -14390.6 0 0 -13686.27z"/>
    <path id="32" class="fil62" d="M62177.53 4767.26l0 13469.03 14162.18 0 0 -13469.03 -14162.18 0zm-228.42 -217.24l14619.02 0 0 13903.51 -14619.02 0 0 -13903.51z"/>
   </g>
  </g>
 </g>
</svg>
