<?xml version="1.0" encoding="UTF-8"?>
<!DOCTYPE svg PUBLIC "-//W3C//DTD SVG 1.1//EN" "http://www.w3.org/Graphics/SVG/1.1/DTD/svg11.dtd">
<!-- Creator: CorelDRAW 2018 (64-Bit) -->
<svg xmlns="http://www.w3.org/2000/svg" xml:space="preserve" width="10.5146mm" height="10mm" version="1.1" style="shape-rendering:geometricPrecision; text-rendering:geometricPrecision; image-rendering:optimizeQuality; fill-rule:evenodd; clip-rule:evenodd"
viewBox="0 0 259.25 246.56"
 xmlns:xlink="http://www.w3.org/1999/xlink">
 <defs>
  <style type="text/css">
   <![CDATA[
    .fil1 {fill:#FBBE0E}
    .fil2 {fill:#FBC00F}
    .fil3 {fill:#FBC20F}
    .fil4 {fill:#FAC40E}
    .fil5 {fill:#FAC70F}
    .fil6 {fill:#FAC90F}
    .fil7 {fill:#F9CA0F}
    .fil8 {fill:#F9CD10}
    .fil9 {fill:#F8CF0F}
    .fil10 {fill:#F8D210}
    .fil11 {fill:#F8D411}
    .fil0 {fill:#FAEA15}
    .fil12 {fill:#F7D611}
    .fil30 {fill:#FAEA15}
    .fil29 {fill:#FAE913}
    .fil13 {fill:#F7D810}
    .fil28 {fill:#F9E911}
    .fil14 {fill:#F7DA10}
    .fil27 {fill:#F9E80F}
    .fil15 {fill:#F6DC11}
    .fil26 {fill:#F8E810}
    .fil16 {fill:#F6DE11}
    .fil25 {fill:#F8E80E}
    .fil17 {fill:#F6E010}
    .fil24 {fill:#F7E70F}
    .fil18 {fill:#F6E20E}
    .fil23 {fill:#F6E70E}
    .fil19 {fill:#F5E40C}
    .fil22 {fill:#F5E70F}
    .fil20 {fill:#F5E50D}
    .fil21 {fill:#F4E60E}
   ]]>
  </style>
    <clipPath id="id0">
     <path d="M129.62 0l30.46 94.37 99.16 -0.19 -80.34 58.13 30.82 94.25 -80.11 -58.44 -80.11 58.44 30.82 -94.25 -80.34 -58.13 99.16 0.19 30.46 -94.37z"/>
    </clipPath>
 </defs>
 <g id="Layer_x0020_1">
  <metadata id="CorelCorpID_0Corel-Layer"/>
  <g>
   <g style="clip-path:url(#id0)">
    <polygon class="fil0" points="-0,0 259.25,0 259.25,246.56 -0,246.56 "/>
    <polygon id="1" class="fil1" points="123.55,117.5 135.7,117.5 135.7,129.06 123.55,129.06 "/>
    <path id="2" class="fil2" d="M125.57 119.43l0 7.71 8.1 0 0 -7.71 -8.1 0zm-6.08 -5.78l20.25 0 0 19.26 -20.25 0 0 -19.26z"/>
    <path id="3" class="fil3" d="M121.52 115.57l0 15.41 16.2 0 0 -15.41 -16.2 0zm-6.08 -5.78l28.36 0 0 26.97 -28.36 0 0 -26.97z"/>
    <path id="4" class="fil4" d="M117.47 111.72l0 23.11 24.3 0 0 -23.11 -24.3 0zm-6.08 -5.78l36.46 0 0 34.67 -36.46 0 0 -34.67z"/>
    <path id="5" class="fil5" d="M113.42 107.87l0 30.82 32.41 0 0 -30.82 -32.41 0zm-6.08 -5.78l44.56 0 0 42.38 -44.56 0 0 -42.38z"/>
    <path id="6" class="fil6" d="M109.37 104.02l0 38.53 40.51 0 0 -38.53 -40.51 0zm-6.08 -5.78l52.66 0 0 50.08 -52.66 0 0 -50.08z"/>
    <path id="7" class="fil7" d="M105.32 100.16l0 46.23 48.61 0 0 -46.23 -48.61 0zm-6.08 -5.78l60.76 0 0 57.79 -60.76 0 0 -57.79z"/>
    <path id="8" class="fil8" d="M101.27 96.31l0 53.93 56.71 0 0 -53.93 -56.71 0zm-6.08 -5.78l68.86 0 0 65.49 -68.86 0 0 -65.49z"/>
    <path id="9" class="fil9" d="M97.22 92.46l0 61.64 64.81 0 0 -61.64 -64.81 0zm-6.08 -5.78l76.96 0 0 73.2 -76.96 0 0 -73.2z"/>
    <path id="10" class="fil10" d="M93.17 88.61l0 69.35 72.91 0 0 -69.35 -72.91 0zm-6.08 -5.78l85.07 0 0 80.9 -85.07 0 0 -80.9z"/>
    <path id="11" class="fil11" d="M89.12 84.75l0 77.05 81.02 0 0 -77.05 -81.02 0zm-6.08 -5.78l93.17 0 0 88.61 -93.17 0 0 -88.61z"/>
    <path id="12" class="fil12" d="M85.07 80.9l0 84.75 89.12 0 0 -84.75 -89.12 0zm-6.08 -5.78l101.27 0 0 96.31 -101.27 0 0 -96.31z"/>
    <path id="13" class="fil13" d="M81.02 77.05l0 92.46 97.22 0 0 -92.46 -97.22 0zm-6.08 -5.78l109.37 0 0 104.02 -109.37 0 0 -104.02z"/>
    <path id="14" class="fil14" d="M76.96 73.2l0 100.17 105.32 0 0 -100.17 -105.32 0zm-6.08 -5.78l117.47 0 0 111.72 -117.47 0 0 -111.72z"/>
    <path id="15" class="fil15" d="M72.91 69.34l0 107.87 113.42 0 0 -107.87 -113.42 0zm-6.08 -5.78l125.57 0 0 119.43 -125.57 0 0 -119.43z"/>
    <path id="16" class="fil16" d="M68.86 65.49l0 115.57 121.52 0 0 -115.57 -121.52 0zm-6.08 -5.78l133.68 0 0 127.13 -133.68 0 0 -127.13z"/>
    <path id="17" class="fil17" d="M64.81 61.64l0 123.28 129.62 0 0 -123.28 -129.62 0zm-6.08 -5.78l141.78 0 0 134.84 -141.78 0 0 -134.84z"/>
    <path id="18" class="fil18" d="M60.76 57.79l0 130.98 137.73 0 0 -130.98 -137.73 0zm-6.08 -5.78l149.88 0 0 142.54 -149.88 0 0 -142.54z"/>
    <path id="19" class="fil19" d="M56.71 53.93l0 138.69 145.83 0 0 -138.69 -145.83 0zm-6.08 -5.78l157.98 0 0 150.25 -157.98 0 0 -150.25z"/>
    <path id="20" class="fil20" d="M52.66 50.08l0 146.39 153.93 0 0 -146.39 -153.93 0zm-6.08 -5.78l166.08 0 0 157.95 -166.08 0 0 -157.95z"/>
    <path id="21" class="fil21" d="M48.61 46.23l0 154.1 162.03 0 0 -154.1 -162.03 0zm-6.08 -5.78l174.18 0 0 165.66 -174.18 0 0 -165.66z"/>
    <path id="22" class="fil22" d="M44.56 42.38l0 161.8 170.13 0 0 -161.8 -170.13 0zm-6.08 -5.78l182.28 0 0 173.36 -182.28 0 0 -173.36z"/>
    <path id="23" class="fil23" d="M40.51 38.52l0 169.51 178.23 0 0 -169.51 -178.23 0zm-6.08 -5.78l190.39 0 0 181.07 -190.39 0 0 -181.07z"/>
    <path id="24" class="fil24" d="M36.46 34.67l0 177.21 186.33 0 0 -177.21 -186.33 0zm-6.08 -5.78l198.49 0 0 188.77 -198.49 0 0 -188.77z"/>
    <path id="25" class="fil25" d="M32.41 30.82l0 184.92 194.44 0 0 -184.92 -194.44 0zm-6.08 -5.78l206.59 0 0 196.48 -206.59 0 0 -196.48z"/>
    <path id="26" class="fil26" d="M28.36 26.97l0 192.62 202.54 0 0 -192.62 -202.54 0zm-6.08 -5.78l214.69 0 0 204.18 -214.69 0 0 -204.18z"/>
    <path id="27" class="fil27" d="M24.3 23.11l0 200.33 210.64 0 0 -200.33 -210.64 0zm-6.08 -5.78l222.79 0 0 211.89 -222.79 0 0 -211.89z"/>
    <path id="28" class="fil28" d="M20.25 19.26l0 208.03 218.74 0 0 -208.03 -218.74 0zm-6.08 -5.78l230.89 0 0 219.59 -230.89 0 0 -219.59z"/>
    <path id="29" class="fil28" d="M16.2 15.41l0 215.74 226.84 0 0 -215.74 -226.84 0zm-6.08 -5.78l238.99 0 0 227.3 -238.99 0 0 -227.3z"/>
    <path id="30" class="fil29" d="M12.15 11.56l0 223.44 234.94 0 0 -223.44 -234.94 0zm-6.08 -5.78l247.1 0 0 235 -247.1 0 0 -235z"/>
    <path id="31" class="fil30" d="M8.1 7.7l0 231.15 243.05 0 0 -231.15 -243.05 0zm-6.08 -5.78l255.2 0 0 242.71 -255.2 0 0 -242.71z"/>
    <path id="32" class="fil0" d="M4.05 3.85l0 238.85 251.15 0 0 -238.85 -251.15 0zm-4.05 -3.85l259.25 0 0 246.56 -259.25 0 0 -246.56z"/>
   </g>
  </g>
 </g>
</svg>
