<?xml version="1.0" encoding="UTF-8"?>
<!DOCTYPE svg PUBLIC "-//W3C//DTD SVG 1.1//EN" "http://www.w3.org/Graphics/SVG/1.1/DTD/svg11.dtd">
<!-- Creator: CorelDRAW 2018 (64-Bit) -->
<svg xmlns="http://www.w3.org/2000/svg" xml:space="preserve" width="146.19mm" height="139.035mm" version="1.1" style="shape-rendering:geometricPrecision; text-rendering:geometricPrecision; image-rendering:optimizeQuality; fill-rule:evenodd; clip-rule:evenodd"
viewBox="0 0 31132.39 29608.65"
 xmlns:xlink="http://www.w3.org/1999/xlink">
 <defs>
  <style type="text/css">
   <![CDATA[
    .fil31 {fill:#E7E7E7}
    .fil0 {fill:#E7DAB4}
    .fil1 {fill:#E6DAB5}
    .fil30 {fill:#E5E5E5}
    .fil2 {fill:#E4D9B6}
    .fil29 {fill:#E3E3E3}
    .fil3 {fill:#E3D8B9}
    .fil4 {fill:#E2D7B9}
    .fil28 {fill:#E0E0E0}
    .fil5 {fill:#E0D7BA}
    .fil6 {fill:#DFD6BC}
    .fil27 {fill:#DEDEDE}
    .fil7 {fill:#DED6BE}
    .fil8 {fill:#DDD5BF}
    .fil26 {fill:#DBDBDB}
    .fil9 {fill:#DCD5C1}
    .fil25 {fill:#DADADA}
    .fil10 {fill:#D9D3C2}
    .fil11 {fill:#D9D3C3}
    .fil24 {fill:#D7D7D7}
    .fil12 {fill:#D7D2C5}
    .fil13 {fill:#D6D2C6}
    .fil23 {fill:#D5D5D5}
    .fil14 {fill:#D4D0C7}
    .fil22 {fill:#D3D2D2}
    .fil15 {fill:#D3D0C8}
    .fil16 {fill:#D2D0CA}
    .fil21 {fill:#D0D0D0}
    .fil17 {fill:#D0CECA}
    .fil18 {fill:#CFCECC}
    .fil20 {fill:#CECECF}
    .fil19 {fill:#CECECD}
   ]]>
  </style>
    <clipPath id="id0">
     <path d="M15566.19 0l3658.05 11332.37 11908.15 -22.87 -9647.34 6980.92 3701.57 11318.23 -9620.42 -7017.95 -9620.42 7017.95 3701.57 -11318.23 -9647.34 -6980.92 11908.15 22.87 3658.05 -11332.37z"/>
    </clipPath>
 </defs>
 <g id="Layer_x0020_1">
  <metadata id="CorelCorpID_0Corel-Layer"/>
  <g>
   <g style="clip-path:url(#id0)">
    <polygon class="fil0" points="14836.54,14110.37 16295.85,14110.37 16295.85,15498.28 14836.54,15498.28 "/>
    <path id="1" class="fil1" d="M15079.75 14341.68l0 925.28 972.88 0 0 -925.28 -972.88 0zm-729.68 -693.95l2432.24 0 0 2313.17 -2432.24 0 0 -2313.17z"/>
    <path id="2" class="fil2" d="M14593.32 13879.05l0 1850.54 1945.76 0 0 -1850.54 -1945.76 0zm-729.68 -693.95l3405.11 0 0 3238.43 -3405.11 0 0 -3238.43z"/>
    <path id="3" class="fil3" d="M14106.86 13416.42l0 2775.8 2918.68 0 0 -2775.8 -2918.68 0zm-729.66 -693.97l4377.99 0 0 4163.74 -4377.99 0 0 -4163.74z"/>
    <path id="4" class="fil4" d="M13620.42 12953.79l0 3701.06 3891.55 0 0 -3701.06 -3891.55 0zm-729.66 -693.97l5350.87 0 0 5089 -5350.87 0 0 -5089z"/>
    <path id="5" class="fil5" d="M13133.98 12491.14l0 4626.37 4864.43 0 0 -4626.37 -4864.43 0zm-729.66 -693.95l6323.75 0 0 6014.26 -6323.75 0 0 -6014.26z"/>
    <path id="6" class="fil6" d="M12647.54 12028.51l0 5551.63 5837.31 0 0 -5551.63 -5837.31 0zm-729.68 -693.95l7296.67 0 0 6939.52 -7296.67 0 0 -6939.52z"/>
    <path id="7" class="fil7" d="M12161.08 11565.88l0 6476.89 6810.23 0 0 -6476.89 -6810.23 0zm-729.66 -693.95l8269.55 0 0 7864.78 -8269.55 0 0 -7864.78z"/>
    <path id="8" class="fil8" d="M11674.64 11103.25l0 7402.15 7783.11 0 0 -7402.15 -7783.11 0zm-729.66 -693.97l9242.42 0 0 8790.08 -9242.42 0 0 -8790.08z"/>
    <path id="9" class="fil9" d="M11188.2 10640.6l0 8327.45 8755.99 0 0 -8327.45 -8755.99 0zm-729.66 -693.95l10215.3 0 0 9715.34 -10215.3 0 0 -9715.34z"/>
    <path id="10" class="fil10" d="M10701.76 10177.97l0 9252.71 9728.86 0 0 -9252.71 -9728.86 0zm-729.68 -693.95l11188.22 0 0 10640.6 -11188.22 0 0 -10640.6z"/>
    <path id="11" class="fil11" d="M10215.32 9715.34l0 10177.97 10701.74 0 0 -10177.97 -10701.74 0zm-729.68 -693.95l12161.1 0 0 11565.86 -12161.1 0 0 -11565.86z"/>
    <path id="12" class="fil12" d="M9728.86 9252.71l0 11103.23 11674.66 0 0 -11103.23 -11674.66 0zm-729.66 -693.97l13133.98 0 0 12491.16 -13133.98 0 0 -12491.16z"/>
    <path id="13" class="fil13" d="M9242.42 8790.06l0 12028.53 12647.54 0 0 -12028.53 -12647.54 0zm-729.66 -693.95l14106.86 0 0 13416.42 -14106.86 0 0 -13416.42z"/>
    <path id="14" class="fil14" d="M8755.99 8327.43l0 12953.79 13620.42 0 0 -12953.79 -13620.42 0zm-729.66 -693.95l15079.73 0 0 14341.68 -15079.73 0 0 -14341.68z"/>
    <path id="15" class="fil15" d="M8269.55 7864.8l0 13879.05 14593.29 0 0 -13879.05 -14593.29 0zm-729.68 -693.95l16052.65 0 0 15266.95 -16052.65 0 0 -15266.95z"/>
    <path id="16" class="fil16" d="M7783.11 7402.17l0 14804.31 15566.19 0 0 -14804.31 -15566.19 0zm-729.68 -693.97l17025.53 0 0 16192.25 -17025.53 0 0 -16192.25z"/>
    <path id="17" class="fil17" d="M7296.65 6939.54l0 15729.58 16539.09 0 0 -15729.58 -16539.09 0zm-729.66 -693.97l17998.41 0 0 17117.51 -17998.41 0 0 -17117.51z"/>
    <path id="18" class="fil18" d="M6810.21 6476.89l0 16654.88 17511.97 0 0 -16654.88 -17511.97 0zm-729.66 -693.95l18971.29 0 0 18042.77 -18971.29 0 0 -18042.77z"/>
    <path id="19" class="fil19" d="M6323.77 6014.26l0 17580.14 18484.85 0 0 -17580.14 -18484.85 0zm-729.66 -693.95l19944.17 0 0 18968.03 -19944.17 0 0 -18968.03z"/>
    <path id="20" class="fil20" d="M5837.33 5551.63l0 18505.4 19457.73 0 0 -18505.4 -19457.73 0zm-729.68 -693.97l20917.09 0 0 19893.33 -20917.09 0 0 -19893.33z"/>
    <path id="21" class="fil21" d="M5350.87 5089l0 19430.66 20430.65 0 0 -19430.66 -20430.65 0zm-729.66 -693.97l21889.96 0 0 20818.59 -21889.96 0 0 -20818.59z"/>
    <path id="22" class="fil22" d="M4864.43 4626.34l0 20355.96 21403.52 0 0 -20355.96 -21403.52 0zm-729.66 -693.95l22862.84 0 0 21743.85 -22862.84 0 0 -21743.85z"/>
    <path id="23" class="fil23" d="M4377.99 4163.71l0 21281.22 22376.4 0 0 -21281.22 -22376.4 0zm-729.66 -693.95l23835.72 0 0 22669.11 -23835.72 0 0 -22669.11z"/>
    <path id="24" class="fil24" d="M3891.55 3701.08l0 22206.48 23349.28 0 0 -22206.48 -23349.28 0zm-729.68 -693.95l24808.64 0 0 23594.37 -24808.64 0 0 -23594.37z"/>
    <path id="25" class="fil25" d="M3405.11 3238.45l0 23131.74 24322.16 0 0 -23131.74 -24322.16 0zm-729.68 -693.97l25781.52 0 0 24519.68 -25781.52 0 0 -24519.68z"/>
    <path id="26" class="fil26" d="M2918.65 2775.8l0 24057.05 25295.08 0 0 -24057.05 -25295.08 0zm-729.66 -693.95l26754.39 0 0 25444.94 -26754.39 0 0 -25444.94z"/>
    <path id="27" class="fil27" d="M2432.22 2313.17l0 24982.31 26267.96 0 0 -24982.31 -26267.96 0zm-729.66 -693.95l27727.27 0 0 26370.2 -27727.27 0 0 -26370.2z"/>
    <path id="28" class="fil28" d="M1945.78 1850.54l0 25907.57 27240.83 0 0 -25907.57 -27240.83 0zm-729.66 -693.95l28700.15 0 0 27295.46 -28700.15 0 0 -27295.46z"/>
    <path id="29" class="fil29" d="M1459.34 1387.91l0 26832.83 28213.71 0 0 -26832.83 -28213.71 0zm-729.68 -693.97l29673.07 0 0 28220.76 -29673.07 0 0 -28220.76z"/>
    <path id="30" class="fil30" d="M972.88 925.26l0 27758.13 29186.63 0 0 -27758.13 -29186.63 0zm-729.66 -693.95l30645.95 0 0 29146.02 -30645.95 0 0 -29146.02z"/>
    <path id="31" class="fil31" d="M486.44 462.63l0 28683.39 30159.51 0 0 -28683.39 -30159.51 0zm-486.44 -462.63l31132.39 0 0 29608.65 -31132.39 0 0 -29608.65z"/>
   </g>
  </g>
 </g>
</svg>
